%TF.GenerationSoftware,KiCad,Pcbnew,10.0.3*%
%TF.CreationDate,2026-08-17T12:35:25+08:00*%
%TF.ProjectId,CoilDriver_v0.1,436f696c-4472-4697-9665-725f76302e31,rev?*%
%TF.SameCoordinates,Original*%
%TF.FileFunction,Soldermask,Top*%
%TF.FilePolarity,Negative*%
%FSLAX46Y46*%
G04 Gerber Fmt 4.6, Leading zero omitted, Abs format (unit mm)*
G04 Created by KiCad (PCBNEW 10.0.3) date 2026-08-17 12:35:25*
%MOMM*%
%LPD*%
G01*
G04 APERTURE LIST*
G04 Aperture macros list*
%AMRoundRect*
0 Rectangle with rounded corners*
0 $1 Rounding radius*
0 $2 $3 $4 $5 $6 $7 $8 $9 X,Y pos of 4 corners*
0 Add a 4 corners polygon primitive as box body*
4,1,4,$2,$3,$4,$5,$6,$7,$8,$9,$2,$3,0*
0 Add four circle primitives for the rounded corners*
1,1,$1+$1,$2,$3*
1,1,$1+$1,$4,$5*
1,1,$1+$1,$6,$7*
1,1,$1+$1,$8,$9*
0 Add four rect primitives between the rounded corners*
20,1,$1+$1,$2,$3,$4,$5,0*
20,1,$1+$1,$4,$5,$6,$7,0*
20,1,$1+$1,$6,$7,$8,$9,0*
20,1,$1+$1,$8,$9,$2,$3,0*%
%AMFreePoly0*
4,1,29,-0.959436,0.597866,-0.299035,0.597866,-0.299035,0.600025,0.310566,0.600025,0.310566,0.597866,0.970968,0.597866,0.970968,0.600025,1.580569,0.600025,1.580569,0.597866,1.599949,0.597866,1.599949,0.067869,1.580569,0.067869,1.580569,-0.599975,0.970968,-0.599975,0.970968,0.067869,0.310566,0.067869,0.310566,-0.599975,-0.299035,-0.599975,-0.299035,0.067869,-0.959436,0.067869,
-0.959436,-0.599975,-1.569037,-0.599975,-1.569037,0.067869,-1.600051,0.067869,-1.600051,0.597866,-1.569037,0.597866,-1.569037,0.600025,-0.959436,0.600025,-0.959436,0.597866,-0.959436,0.597866,$1*%
%AMFreePoly1*
4,1,21,-1.600254,1.671679,-0.939853,1.671679,-0.939853,2.428346,-0.330251,2.428346,-0.330251,1.671679,0.330150,1.671679,0.330150,2.428346,0.939751,2.428346,0.939751,1.671679,1.600152,1.671679,1.600152,2.428346,2.209754,2.428346,2.209754,1.671679,2.299924,1.671679,2.299924,-2.428346,-2.300076,-2.428346,-2.300076,1.671679,-2.209855,1.671679,-2.209855,2.428346,-1.600254,2.428346,
-1.600254,1.671679,-1.600254,1.671679,$1*%
G04 Aperture macros list end*
%ADD10R,3.500000X1.200000*%
%ADD11R,8.500025X2.600000*%
%ADD12RoundRect,0.135000X-0.135000X-0.185000X0.135000X-0.185000X0.135000X0.185000X-0.135000X0.185000X0*%
%ADD13R,3.000000X3.000000*%
%ADD14C,3.000000*%
%ADD15R,1.803404X0.406401*%
%ADD16R,1.100000X0.600000*%
%ADD17RoundRect,0.140000X-0.170000X0.140000X-0.170000X-0.140000X0.170000X-0.140000X0.170000X0.140000X0*%
%ADD18RoundRect,0.140000X0.140000X0.170000X-0.140000X0.170000X-0.140000X-0.170000X0.140000X-0.170000X0*%
%ADD19RoundRect,0.250000X-0.475000X0.250000X-0.475000X-0.250000X0.475000X-0.250000X0.475000X0.250000X0*%
%ADD20RoundRect,0.250000X-0.250000X-0.475000X0.250000X-0.475000X0.250000X0.475000X-0.250000X0.475000X0*%
%ADD21RoundRect,0.135000X0.135000X0.185000X-0.135000X0.185000X-0.135000X-0.185000X0.135000X-0.185000X0*%
%ADD22R,0.500000X0.935992*%
%ADD23FreePoly0,90.000000*%
%ADD24R,1.200000X0.609601*%
%ADD25FreePoly1,90.000000*%
%ADD26RoundRect,0.250000X0.250000X0.475000X-0.250000X0.475000X-0.250000X-0.475000X0.250000X-0.475000X0*%
%ADD27RoundRect,0.140000X-0.140000X-0.170000X0.140000X-0.170000X0.140000X0.170000X-0.140000X0.170000X0*%
%ADD28RoundRect,0.250000X0.475000X-0.250000X0.475000X0.250000X-0.475000X0.250000X-0.475000X-0.250000X0*%
%ADD29RoundRect,0.135000X0.185000X-0.135000X0.185000X0.135000X-0.185000X0.135000X-0.185000X-0.135000X0*%
%ADD30R,0.800000X0.650013*%
%ADD31R,0.800000X0.500000*%
%ADD32R,0.650013X0.800000*%
%ADD33R,0.500000X0.800000*%
%ADD34FreePoly0,270.000000*%
%ADD35FreePoly1,270.000000*%
%ADD36R,2.047498X2.192405*%
%ADD37RoundRect,0.200000X-0.200000X-0.275000X0.200000X-0.275000X0.200000X0.275000X-0.200000X0.275000X0*%
%ADD38R,4.500000X1.510998*%
%ADD39R,10.020015X10.800025*%
%ADD40R,0.600000X1.000000*%
%ADD41RoundRect,0.140000X0.170000X-0.140000X0.170000X0.140000X-0.170000X0.140000X-0.170000X-0.140000X0*%
%ADD42O,1.800000X0.588011*%
%ADD43RoundRect,0.135000X-0.185000X0.135000X-0.185000X-0.135000X0.185000X-0.135000X0.185000X0.135000X0*%
%ADD44R,1.500000X1.358903*%
%ADD45RoundRect,0.250000X-0.312500X-0.625000X0.312500X-0.625000X0.312500X0.625000X-0.312500X0.625000X0*%
%ADD46R,0.800000X0.864008*%
%ADD47R,3.429997X2.420015*%
%ADD48R,1.800000X1.800000*%
%ADD49C,1.800000*%
%ADD50RoundRect,0.250000X-0.650000X0.325000X-0.650000X-0.325000X0.650000X-0.325000X0.650000X0.325000X0*%
%ADD51R,3.600000X1.000000*%
%ADD52R,9.000000X10.600000*%
%ADD53R,0.650000X1.450000*%
%ADD54R,2.000000X2.000000*%
%ADD55C,2.000000*%
%ADD56C,1.600000*%
%ADD57R,2.500000X1.900000*%
%ADD58R,1.574803X1.574803*%
%ADD59C,1.574803*%
%ADD60C,4.000000*%
%ADD61RoundRect,0.250000X0.312500X1.450000X-0.312500X1.450000X-0.312500X-1.450000X0.312500X-1.450000X0*%
%ADD62R,2.400000X3.200000*%
%ADD63RoundRect,0.218750X-0.256250X0.218750X-0.256250X-0.218750X0.256250X-0.218750X0.256250X0.218750X0*%
%ADD64O,1.742012X0.364008*%
%ADD65RoundRect,0.200000X0.200000X0.275000X-0.200000X0.275000X-0.200000X-0.275000X0.200000X-0.275000X0*%
%ADD66R,0.800000X0.800000*%
%ADD67R,0.600000X0.800000*%
%ADD68R,0.700000X0.350013*%
%ADD69R,0.840996X0.315011*%
%ADD70R,0.989992X0.405004*%
%ADD71R,1.724994X2.235001*%
%ADD72R,2.540005X1.270003*%
%ADD73R,6.100000X5.400000*%
%ADD74R,1.559995X0.364008*%
G04 APERTURE END LIST*
D10*
%TO.C,C31*%
X173369876Y-103000127D03*
X168030023Y-103000127D03*
%TD*%
D11*
%TO.C,C15*%
X68706655Y-60600000D03*
X82893345Y-60600000D03*
%TD*%
D12*
%TO.C,R28*%
X111380000Y-115600000D03*
X112400000Y-115600000D03*
%TD*%
D13*
%TO.C,CN1*%
X53500000Y-57459995D03*
D14*
X53500000Y-62540005D03*
%TD*%
D15*
%TO.C,U6*%
X161700000Y-115849797D03*
X161700000Y-116500038D03*
X161700000Y-117150025D03*
X161700000Y-117800013D03*
X161700000Y-118450000D03*
X161700000Y-119099987D03*
X161700000Y-119749975D03*
X161700000Y-120399962D03*
X167700000Y-120399962D03*
X167700000Y-119749975D03*
X167700000Y-119099987D03*
X167700000Y-118450000D03*
X167700000Y-117800013D03*
X167700000Y-117150025D03*
X167700000Y-116500038D03*
X167700000Y-115849797D03*
%TD*%
D16*
%TO.C,U18*%
X176500000Y-119899924D03*
X176500000Y-118949962D03*
X176500000Y-118000000D03*
X173899796Y-118000000D03*
X173899796Y-119899924D03*
%TD*%
D17*
%TO.C,C56*%
X173729745Y-121619898D03*
X173729745Y-122579898D03*
%TD*%
D18*
%TO.C,C8*%
X89837500Y-68900000D03*
X88877500Y-68900000D03*
%TD*%
D19*
%TO.C,C43*%
X181110000Y-68820000D03*
X181110000Y-70720000D03*
%TD*%
D20*
%TO.C,C62*%
X100850000Y-116100000D03*
X102750000Y-116100000D03*
%TD*%
D21*
%TO.C,R48*%
X79992553Y-141800000D03*
X78972553Y-141800000D03*
%TD*%
D17*
%TO.C,C36*%
X181694968Y-55494981D03*
X181694968Y-56454981D03*
%TD*%
%TO.C,C12*%
X61560000Y-61600000D03*
X61560000Y-62560000D03*
%TD*%
D22*
%TO.C,U4*%
X91787513Y-73397892D03*
X93087487Y-73397892D03*
X92437500Y-71602108D03*
%TD*%
D23*
%TO.C,T6*%
X67237300Y-105909156D03*
D24*
X67237300Y-103363308D03*
D25*
X63262700Y-105268312D03*
%TD*%
D20*
%TO.C,C73*%
X100956655Y-146000000D03*
X102856655Y-146000000D03*
%TD*%
D21*
%TO.C,R19*%
X80000000Y-89200000D03*
X78980000Y-89200000D03*
%TD*%
D13*
%TO.C,CN7*%
X53500000Y-137459995D03*
D14*
X53500000Y-142540005D03*
%TD*%
D26*
%TO.C,C21*%
X163099949Y-109964999D03*
X161199949Y-109964999D03*
%TD*%
D27*
%TO.C,C63*%
X112340000Y-101200000D03*
X113300000Y-101200000D03*
%TD*%
D28*
%TO.C,C81*%
X117348561Y-136074686D03*
X117348561Y-134174686D03*
%TD*%
%TO.C,C2*%
X117600000Y-77900000D03*
X117600000Y-76000000D03*
%TD*%
D18*
%TO.C,C18*%
X163600000Y-93400000D03*
X162640000Y-93400000D03*
%TD*%
%TO.C,C29*%
X163009949Y-102764999D03*
X162049949Y-102764999D03*
%TD*%
D10*
%TO.C,C16*%
X198069977Y-56149873D03*
X192730124Y-56149873D03*
%TD*%
D20*
%TO.C,C65*%
X90750000Y-107200000D03*
X92650000Y-107200000D03*
%TD*%
D29*
%TO.C,R6*%
X93837500Y-78000000D03*
X93837500Y-76980000D03*
%TD*%
D28*
%TO.C,C30*%
X164800000Y-104250000D03*
X164800000Y-102350000D03*
%TD*%
%TO.C,C70*%
X120010000Y-106150000D03*
X120010000Y-104250000D03*
%TD*%
D18*
%TO.C,C67*%
X89230000Y-99500000D03*
X88270000Y-99500000D03*
%TD*%
D30*
%TO.C,RN3*%
X188200000Y-105700102D03*
D31*
X188200000Y-106499949D03*
X188200000Y-107300051D03*
D30*
X188200000Y-108099898D03*
X189800000Y-108099898D03*
D31*
X189800000Y-107300051D03*
X189800000Y-106499949D03*
D30*
X189800000Y-105700102D03*
%TD*%
D32*
%TO.C,RN2*%
X169200102Y-134100000D03*
D33*
X169999949Y-134100000D03*
X170800051Y-134100000D03*
D32*
X171599898Y-134100000D03*
X171599898Y-132500000D03*
D33*
X170800051Y-132500000D03*
X169999949Y-132500000D03*
D32*
X169200102Y-132500000D03*
%TD*%
D27*
%TO.C,C23*%
X172520000Y-108000000D03*
X173480000Y-108000000D03*
%TD*%
D18*
%TO.C,C22*%
X163149949Y-111864999D03*
X162189949Y-111864999D03*
%TD*%
D29*
%TO.C,R7*%
X91037500Y-78010000D03*
X91037500Y-76990000D03*
%TD*%
D34*
%TO.C,T7*%
X71000000Y-111200000D03*
D24*
X71000000Y-113745848D03*
D35*
X74974600Y-111840844D03*
%TD*%
D27*
%TO.C,C57*%
X111920000Y-72900000D03*
X112880000Y-72900000D03*
%TD*%
D36*
%TO.C,D4*%
X61964719Y-74859156D03*
X66686081Y-74859156D03*
%TD*%
D23*
%TO.C,T4*%
X67225400Y-87532080D03*
D24*
X67225400Y-84986232D03*
D25*
X63250800Y-86891236D03*
%TD*%
D12*
%TO.C,R12*%
X176484968Y-53954981D03*
X177504968Y-53954981D03*
%TD*%
D36*
%TO.C,D5*%
X61964719Y-92459156D03*
X66686081Y-92459156D03*
%TD*%
%TO.C,D11*%
X76200000Y-126300000D03*
X71478638Y-126300000D03*
%TD*%
D37*
%TO.C,R3*%
X111150000Y-85800000D03*
X112800000Y-85800000D03*
%TD*%
D27*
%TO.C,C25*%
X172520000Y-110840000D03*
X173480000Y-110840000D03*
%TD*%
D29*
%TO.C,R15*%
X192400000Y-142710000D03*
X192400000Y-141690000D03*
%TD*%
D38*
%TO.C,U20*%
X196328753Y-97640005D03*
X196328753Y-95100000D03*
X196328753Y-92559995D03*
D39*
X186071196Y-95100000D03*
%TD*%
D29*
%TO.C,R44*%
X89750013Y-137497892D03*
X89750013Y-136477892D03*
%TD*%
%TO.C,R30*%
X93100000Y-109900000D03*
X93100000Y-108880000D03*
%TD*%
D23*
%TO.C,T3*%
X67212700Y-81032080D03*
D24*
X67212700Y-78486232D03*
D25*
X63238100Y-80391236D03*
%TD*%
D40*
%TO.C,U21*%
X92599835Y-99632510D03*
X91650127Y-99632510D03*
X90700165Y-99632510D03*
X90699911Y-101832662D03*
X92600089Y-101832662D03*
%TD*%
D41*
%TO.C,C51*%
X184700000Y-117660000D03*
X184700000Y-116700000D03*
%TD*%
D26*
%TO.C,C19*%
X163300000Y-90400000D03*
X161400000Y-90400000D03*
%TD*%
D27*
%TO.C,C55*%
X185720000Y-147500000D03*
X186680000Y-147500000D03*
%TD*%
D18*
%TO.C,C80*%
X88500000Y-126800000D03*
X87540000Y-126800000D03*
%TD*%
D12*
%TO.C,R24*%
X100490000Y-114000000D03*
X101510000Y-114000000D03*
%TD*%
D23*
%TO.C,T10*%
X67152019Y-132372924D03*
D24*
X67152019Y-129827076D03*
D25*
X63177419Y-131732080D03*
%TD*%
D21*
%TO.C,R10*%
X170630000Y-117530000D03*
X169610000Y-117530000D03*
%TD*%
D28*
%TO.C,C3*%
X119900000Y-77900000D03*
X119900000Y-76000000D03*
%TD*%
D19*
%TO.C,C42*%
X193820000Y-69600000D03*
X193820000Y-71500000D03*
%TD*%
D18*
%TO.C,C27*%
X170600000Y-116250000D03*
X169640000Y-116250000D03*
%TD*%
D42*
%TO.C,U19*%
X84799949Y-85505004D03*
X84799949Y-84235001D03*
X84799949Y-82964999D03*
X84799949Y-81694996D03*
X79600051Y-81694996D03*
X79600051Y-82964999D03*
X79600051Y-84235001D03*
X79600051Y-85505004D03*
%TD*%
D21*
%TO.C,R26*%
X156200000Y-111200000D03*
X155180000Y-111200000D03*
%TD*%
%TO.C,R35*%
X79992553Y-115600000D03*
X78972553Y-115600000D03*
%TD*%
D43*
%TO.C,R25*%
X115600000Y-107590000D03*
X115600000Y-108610000D03*
%TD*%
D21*
%TO.C,R14*%
X177910000Y-73720000D03*
X176890000Y-73720000D03*
%TD*%
D34*
%TO.C,T2*%
X71025400Y-86259156D03*
D24*
X71025400Y-88805004D03*
D35*
X75000000Y-86900000D03*
%TD*%
D17*
%TO.C,C77*%
X116848561Y-137524686D03*
X116848561Y-138484686D03*
%TD*%
D44*
%TO.C,C20*%
X163200000Y-95300000D03*
X160800204Y-95300000D03*
%TD*%
D45*
%TO.C,R45*%
X89687513Y-139297892D03*
X92612513Y-139297892D03*
%TD*%
D28*
%TO.C,C64*%
X117200000Y-115900000D03*
X117200000Y-114000000D03*
%TD*%
D46*
%TO.C,L10*%
X177400102Y-115300000D03*
X178799898Y-115300000D03*
%TD*%
D41*
%TO.C,C35*%
X176050000Y-57550000D03*
X176050000Y-56590000D03*
%TD*%
D47*
%TO.C,L5*%
X186200000Y-59024562D03*
X186200000Y-53175438D03*
%TD*%
D12*
%TO.C,R2*%
X100180000Y-85900000D03*
X101200000Y-85900000D03*
%TD*%
D48*
%TO.C,J3*%
X91179984Y-58740006D03*
D49*
X93719989Y-58740006D03*
X96259994Y-58740006D03*
X98800000Y-58740006D03*
X101340005Y-58740006D03*
X103880010Y-58740006D03*
X103880010Y-56200000D03*
X101340005Y-56200000D03*
X98800000Y-56200000D03*
X96259994Y-56200000D03*
X93719989Y-56200000D03*
X91179984Y-56200000D03*
%TD*%
D12*
%TO.C,R37*%
X100596655Y-144000000D03*
X101616655Y-144000000D03*
%TD*%
D21*
%TO.C,R39*%
X159610000Y-119750000D03*
X158590000Y-119750000D03*
%TD*%
D19*
%TO.C,C32*%
X195100000Y-61500000D03*
X195100000Y-63400000D03*
%TD*%
D21*
%TO.C,R21*%
X80000000Y-76600000D03*
X78980000Y-76600000D03*
%TD*%
D40*
%TO.C,U3*%
X93387335Y-67800000D03*
X92437627Y-67800000D03*
X91487665Y-67800000D03*
X91487411Y-70000152D03*
X93387589Y-70000152D03*
%TD*%
D46*
%TO.C,L1*%
X156900204Y-134700000D03*
X158300000Y-134700000D03*
%TD*%
D17*
%TO.C,C1*%
X117200000Y-79300000D03*
X117200000Y-80260000D03*
%TD*%
D18*
%TO.C,C53*%
X197780000Y-139400000D03*
X196820000Y-139400000D03*
%TD*%
D11*
%TO.C,C4*%
X123113310Y-80600000D03*
X137300000Y-80600000D03*
%TD*%
D50*
%TO.C,C38*%
X193640000Y-78180000D03*
X193640000Y-81130000D03*
%TD*%
D18*
%TO.C,C28*%
X163009949Y-104664999D03*
X162049949Y-104664999D03*
%TD*%
D51*
%TO.C,U1*%
X112848689Y-82980011D03*
X112848689Y-81710008D03*
X112848689Y-80440006D03*
X112848689Y-79170003D03*
X112848689Y-77900000D03*
X112848689Y-76629998D03*
X112848689Y-75359995D03*
D52*
X102348561Y-79170003D03*
%TD*%
D41*
%TO.C,C14*%
X184300000Y-111000000D03*
X184300000Y-110040000D03*
%TD*%
D45*
%TO.C,R5*%
X90975000Y-79900000D03*
X93900000Y-79900000D03*
%TD*%
D53*
%TO.C,U13*%
X186585000Y-128775000D03*
X187855000Y-128775000D03*
X189125000Y-128775000D03*
X190395000Y-128775000D03*
X191665000Y-128775000D03*
X192935000Y-128775000D03*
X194205000Y-128775000D03*
X195475000Y-128775000D03*
X196745000Y-128775000D03*
X198015000Y-128775000D03*
X198015000Y-118825000D03*
X196745000Y-118825000D03*
X195475000Y-118825000D03*
X194205000Y-118825000D03*
X192935000Y-118825000D03*
X191665000Y-118825000D03*
X190395000Y-118825000D03*
X189125000Y-118825000D03*
X187855000Y-118825000D03*
X186585000Y-118825000D03*
%TD*%
D12*
%TO.C,R9*%
X185490000Y-111000000D03*
X186510000Y-111000000D03*
%TD*%
D27*
%TO.C,C46*%
X176930000Y-72520000D03*
X177890000Y-72520000D03*
%TD*%
D28*
%TO.C,C75*%
X116706655Y-145550000D03*
X116706655Y-143650000D03*
%TD*%
D27*
%TO.C,C24*%
X172520000Y-109400000D03*
X173480000Y-109400000D03*
%TD*%
D28*
%TO.C,C34*%
X174350000Y-57550000D03*
X174350000Y-55650000D03*
%TD*%
D20*
%TO.C,C5*%
X100440000Y-87800000D03*
X102340000Y-87800000D03*
%TD*%
D17*
%TO.C,C52*%
X174999745Y-121619898D03*
X174999745Y-122579898D03*
%TD*%
D36*
%TO.C,D1*%
X121360681Y-71500000D03*
X116639319Y-71500000D03*
%TD*%
D21*
%TO.C,R17*%
X197810000Y-140600000D03*
X196790000Y-140600000D03*
%TD*%
D54*
%TO.C,J2*%
X191570003Y-139100000D03*
D55*
X189029997Y-139100000D03*
%TD*%
D26*
%TO.C,C10*%
X91137500Y-65800000D03*
X89237500Y-65800000D03*
%TD*%
D43*
%TO.C,R22*%
X115800000Y-79290000D03*
X115800000Y-80310000D03*
%TD*%
D37*
%TO.C,R42*%
X109981655Y-144000000D03*
X111631655Y-144000000D03*
%TD*%
D21*
%TO.C,R46*%
X79992553Y-130400000D03*
X78972553Y-130400000D03*
%TD*%
D18*
%TO.C,C9*%
X89837500Y-67600000D03*
X88877500Y-67600000D03*
%TD*%
D36*
%TO.C,D10*%
X121660681Y-99400000D03*
X116939319Y-99400000D03*
%TD*%
D56*
%TO.C,SW1*%
X179400000Y-138779984D03*
X176859995Y-138779984D03*
X174319990Y-138779984D03*
X171779985Y-138779984D03*
X169239979Y-138779984D03*
X166699974Y-138779984D03*
X164159969Y-138779984D03*
X161619964Y-138779984D03*
X161619964Y-146400000D03*
X164159969Y-146400000D03*
X166699974Y-146400000D03*
X169239979Y-146400000D03*
X171779985Y-146400000D03*
X174319990Y-146400000D03*
X176859995Y-146400000D03*
X179400000Y-146400000D03*
%TD*%
D34*
%TO.C,T11*%
X70939319Y-137500000D03*
D24*
X70939319Y-140045848D03*
D35*
X74913919Y-138140844D03*
%TD*%
D57*
%TO.C,L8*%
X171210000Y-68269962D03*
X171210000Y-72370038D03*
%TD*%
D21*
%TO.C,R13*%
X180020000Y-72520000D03*
X179000000Y-72520000D03*
%TD*%
D36*
%TO.C,D6*%
X76335281Y-99800000D03*
X71613919Y-99800000D03*
%TD*%
D34*
%TO.C,T9*%
X70914719Y-131100000D03*
D24*
X70914719Y-133645848D03*
D35*
X74889319Y-131740844D03*
%TD*%
D18*
%TO.C,C59*%
X196300000Y-88700000D03*
X195340000Y-88700000D03*
%TD*%
D19*
%TO.C,C33*%
X192090000Y-61500000D03*
X192090000Y-63400000D03*
%TD*%
D26*
%TO.C,C58*%
X196300000Y-86700000D03*
X194400000Y-86700000D03*
%TD*%
D58*
%TO.C,J1*%
X207870003Y-60629921D03*
D59*
X207870003Y-63169926D03*
X207870003Y-65709931D03*
X207870003Y-68249936D03*
X207870003Y-70789942D03*
X207870003Y-73329947D03*
X207870003Y-75869952D03*
X207870003Y-78409957D03*
X207870003Y-80949962D03*
X207870003Y-83489967D03*
X207870003Y-86029972D03*
X207870003Y-88569977D03*
X207870003Y-91109982D03*
X207870003Y-93649987D03*
X207870003Y-96189992D03*
X207870003Y-98729997D03*
X207870003Y-101270003D03*
X207870003Y-103810008D03*
X207870003Y-106350013D03*
X207870003Y-108890018D03*
X207870003Y-111430023D03*
X207870003Y-113970028D03*
X207870003Y-116510033D03*
X207870003Y-119050038D03*
X207870003Y-121590043D03*
X207870003Y-124130048D03*
X207870003Y-126670053D03*
X207870003Y-129210058D03*
X207870003Y-131750064D03*
X207870003Y-134290069D03*
X207870003Y-136830074D03*
X207870003Y-139370079D03*
X205329997Y-60629921D03*
X205329997Y-63169926D03*
X205329997Y-65709931D03*
X205329997Y-68249936D03*
X205329997Y-70789942D03*
X205329997Y-73329947D03*
X205329997Y-75869952D03*
X205329997Y-78409957D03*
X205329997Y-80949962D03*
X205329997Y-83489967D03*
X205329997Y-86029972D03*
X205329997Y-88569977D03*
X205329997Y-91109982D03*
X205329997Y-93649987D03*
X205329997Y-96189992D03*
X205329997Y-98729997D03*
X205329997Y-101270003D03*
X205329997Y-103810008D03*
X205329997Y-106350013D03*
X205329997Y-108890018D03*
X205329997Y-111430023D03*
X205329997Y-113970028D03*
X205329997Y-116510033D03*
X205329997Y-119050038D03*
X205329997Y-121590043D03*
X205329997Y-124130048D03*
X205329997Y-126670053D03*
X205329997Y-129210058D03*
X205329997Y-131750064D03*
X205329997Y-134290069D03*
X205329997Y-136830074D03*
X205329997Y-139370079D03*
X202789992Y-60629921D03*
X202789992Y-63169926D03*
X202789992Y-65709931D03*
X202789992Y-68249936D03*
X202789992Y-70789942D03*
X202789992Y-73329947D03*
X202789992Y-75869952D03*
X202789992Y-78409957D03*
X202789992Y-80949962D03*
X202789992Y-83489967D03*
X202789992Y-86029972D03*
X202789992Y-88569977D03*
X202789992Y-91109982D03*
X202789992Y-93649987D03*
X202789992Y-96189992D03*
X202789992Y-98729997D03*
X202789992Y-101270003D03*
X202789992Y-103810008D03*
X202789992Y-106350013D03*
X202789992Y-108890018D03*
X202789992Y-111430023D03*
X202789992Y-113970028D03*
X202789992Y-116510033D03*
X202789992Y-119050038D03*
X202789992Y-121590043D03*
X202789992Y-124130048D03*
X202789992Y-126670053D03*
X202789992Y-129210058D03*
X202789992Y-131750064D03*
X202789992Y-134290069D03*
X202789992Y-136830074D03*
X202789992Y-139370079D03*
D60*
X210410008Y-55549911D03*
X210410008Y-144450089D03*
%TD*%
D20*
%TO.C,C76*%
X90200013Y-134697892D03*
X92100013Y-134697892D03*
%TD*%
D26*
%TO.C,C71*%
X90500000Y-97600000D03*
X88600000Y-97600000D03*
%TD*%
D27*
%TO.C,C54*%
X192520000Y-113600000D03*
X193480000Y-113600000D03*
%TD*%
D23*
%TO.C,T12*%
X67152019Y-138772924D03*
D24*
X67152019Y-136227076D03*
D25*
X63177419Y-138132080D03*
%TD*%
D61*
%TO.C,L3*%
X188437500Y-62750000D03*
X184162500Y-62750000D03*
%TD*%
D36*
%TO.C,D15*%
X121267336Y-129200000D03*
X116545974Y-129200000D03*
%TD*%
D17*
%TO.C,C11*%
X63060000Y-61580000D03*
X63060000Y-62540000D03*
%TD*%
D19*
%TO.C,C40*%
X181590000Y-78280000D03*
X181590000Y-80180000D03*
%TD*%
D13*
%TO.C,CN3*%
X53500000Y-84126662D03*
D14*
X53500000Y-89206672D03*
%TD*%
D23*
%TO.C,T8*%
X67361900Y-112472924D03*
D24*
X67361900Y-109927076D03*
D25*
X63387300Y-111832080D03*
%TD*%
D34*
%TO.C,T1*%
X70988100Y-79786232D03*
D24*
X70988100Y-82332080D03*
D35*
X74962700Y-80427076D03*
%TD*%
D17*
%TO.C,C44*%
X182910000Y-68520000D03*
X182910000Y-69480000D03*
%TD*%
D61*
%TO.C,L7*%
X191167500Y-70500000D03*
X186892500Y-70500000D03*
%TD*%
D30*
%TO.C,RN4*%
X188200000Y-110200102D03*
D31*
X188200000Y-110999949D03*
X188200000Y-111800051D03*
D30*
X188200000Y-112599898D03*
X189800000Y-112599898D03*
D31*
X189800000Y-111800051D03*
X189800000Y-110999949D03*
D30*
X189800000Y-110200102D03*
%TD*%
D29*
%TO.C,R31*%
X90300000Y-109900000D03*
X90300000Y-108880000D03*
%TD*%
D41*
%TO.C,C45*%
X174810000Y-70800000D03*
X174810000Y-69840000D03*
%TD*%
D12*
%TO.C,R41*%
X110796655Y-145500000D03*
X111816655Y-145500000D03*
%TD*%
D28*
%TO.C,C49*%
X166580000Y-82990000D03*
X166580000Y-81090000D03*
%TD*%
D42*
%TO.C,U14*%
X194300051Y-142794996D03*
X194300051Y-144064999D03*
X194300051Y-145335001D03*
X194300051Y-146605004D03*
X199499949Y-146605004D03*
X199499949Y-145335001D03*
X199499949Y-144064999D03*
X199499949Y-142794996D03*
%TD*%
D36*
%TO.C,D9*%
X62113919Y-117334448D03*
X66835281Y-117334448D03*
%TD*%
D28*
%TO.C,C13*%
X62600000Y-59850000D03*
X62600000Y-57950000D03*
%TD*%
D62*
%TO.C,L6*%
X190589898Y-78330000D03*
X184589898Y-78330000D03*
%TD*%
D63*
%TO.C,L2*%
X162999949Y-106264999D03*
X162999949Y-107839999D03*
%TD*%
D18*
%TO.C,C17*%
X163600000Y-92100000D03*
X162640000Y-92100000D03*
%TD*%
D50*
%TO.C,C39*%
X196990000Y-78180000D03*
X196990000Y-81130000D03*
%TD*%
D21*
%TO.C,R1*%
X156410000Y-97100000D03*
X155390000Y-97100000D03*
%TD*%
D36*
%TO.C,D3*%
X76286081Y-92459156D03*
X71564719Y-92459156D03*
%TD*%
D64*
%TO.C,U17*%
X198270968Y-112125070D03*
X198270968Y-111475083D03*
X198270968Y-110825095D03*
X198270968Y-110175108D03*
X198270968Y-109524867D03*
X198270968Y-108874879D03*
X198270968Y-108224892D03*
X198270968Y-107574905D03*
X198270968Y-106924917D03*
X198270968Y-106274930D03*
X192529032Y-106274930D03*
X192529032Y-106924917D03*
X192529032Y-107574905D03*
X192529032Y-108224892D03*
X192529032Y-108874879D03*
X192529032Y-109524867D03*
X192529032Y-110175108D03*
X192529032Y-110825095D03*
X192529032Y-111475083D03*
X192529032Y-112125070D03*
%TD*%
D36*
%TO.C,D2*%
X76286081Y-74859156D03*
X71564719Y-74859156D03*
%TD*%
D11*
%TO.C,C83*%
X123113310Y-139000000D03*
X137300000Y-139000000D03*
%TD*%
D36*
%TO.C,D7*%
X61913919Y-99800000D03*
X66635281Y-99800000D03*
%TD*%
D43*
%TO.C,R8*%
X60200000Y-56780000D03*
X60200000Y-57800000D03*
%TD*%
D36*
%TO.C,D12*%
X61878638Y-126300000D03*
X66600000Y-126300000D03*
%TD*%
D18*
%TO.C,C50*%
X186880000Y-117000000D03*
X185920000Y-117000000D03*
%TD*%
D17*
%TO.C,C66*%
X117000000Y-107600000D03*
X117000000Y-108560000D03*
%TD*%
D65*
%TO.C,R40*%
X107831655Y-144000000D03*
X106181655Y-144000000D03*
%TD*%
D13*
%TO.C,CN5*%
X53500000Y-110793328D03*
D14*
X53500000Y-115873338D03*
%TD*%
D32*
%TO.C,RN1*%
X164200102Y-134100000D03*
D33*
X164999949Y-134100000D03*
X165800051Y-134100000D03*
D32*
X166599898Y-134100000D03*
X166599898Y-132500000D03*
D33*
X165800051Y-132500000D03*
X164999949Y-132500000D03*
D32*
X164200102Y-132500000D03*
%TD*%
D27*
%TO.C,C26*%
X172520000Y-112200000D03*
X173480000Y-112200000D03*
%TD*%
D65*
%TO.C,R23*%
X108625000Y-85900000D03*
X106975000Y-85900000D03*
%TD*%
D36*
%TO.C,D8*%
X76335281Y-117300000D03*
X71613919Y-117300000D03*
%TD*%
D42*
%TO.C,U24*%
X84799949Y-109905004D03*
X84799949Y-108635001D03*
X84799949Y-107364999D03*
X84799949Y-106094996D03*
X79600051Y-106094996D03*
X79600051Y-107364999D03*
X79600051Y-108635001D03*
X79600051Y-109905004D03*
%TD*%
D18*
%TO.C,C37*%
X179674968Y-53954981D03*
X178714968Y-53954981D03*
%TD*%
D45*
%TO.C,R32*%
X90237500Y-111700000D03*
X93162500Y-111700000D03*
%TD*%
D21*
%TO.C,R18*%
X80000000Y-78000000D03*
X78980000Y-78000000D03*
%TD*%
D20*
%TO.C,C7*%
X91487500Y-75300000D03*
X93387500Y-75300000D03*
%TD*%
D66*
%TO.C,U9*%
X198100000Y-63654978D03*
X198100000Y-61245022D03*
%TD*%
D26*
%TO.C,C48*%
X175370102Y-78100000D03*
X173470102Y-78100000D03*
%TD*%
D67*
%TO.C,D29*%
X181449936Y-103750000D03*
X182950064Y-103750000D03*
%TD*%
D28*
%TO.C,C47*%
X178480000Y-83690000D03*
X178480000Y-81790000D03*
%TD*%
D27*
%TO.C,C74*%
X113348561Y-131124686D03*
X114308561Y-131124686D03*
%TD*%
D44*
%TO.C,C60*%
X195999796Y-103600000D03*
X193600000Y-103600000D03*
%TD*%
D43*
%TO.C,R16*%
X192400000Y-145390000D03*
X192400000Y-146410000D03*
%TD*%
D51*
%TO.C,U26*%
X112848689Y-141234694D03*
X112848689Y-139964691D03*
X112848689Y-138694689D03*
X112848689Y-137424686D03*
X112848689Y-136154683D03*
X112848689Y-134884681D03*
X112848689Y-133614678D03*
D52*
X102348561Y-137424686D03*
%TD*%
D28*
%TO.C,C68*%
X117600000Y-106150000D03*
X117600000Y-104250000D03*
%TD*%
D11*
%TO.C,C72*%
X123113310Y-109000000D03*
X137300000Y-109000000D03*
%TD*%
D22*
%TO.C,U27*%
X90500026Y-132795784D03*
X91800000Y-132795784D03*
X91150013Y-131000000D03*
%TD*%
D19*
%TO.C,C41*%
X196930000Y-69600000D03*
X196930000Y-71500000D03*
%TD*%
D28*
%TO.C,C6*%
X117000000Y-87650000D03*
X117000000Y-85750000D03*
%TD*%
D68*
%TO.C,U16*%
X186440056Y-103149987D03*
X186440056Y-102500000D03*
X186440056Y-101850013D03*
X184559944Y-101850013D03*
X184559944Y-103149987D03*
%TD*%
D21*
%TO.C,R49*%
X79992553Y-129100000D03*
X78972553Y-129100000D03*
%TD*%
D22*
%TO.C,U23*%
X91050013Y-105297892D03*
X92349987Y-105297892D03*
X91700000Y-103502108D03*
%TD*%
D16*
%TO.C,U10*%
X177544955Y-55605019D03*
X177544955Y-56554981D03*
X177544955Y-57504943D03*
X180244981Y-57504943D03*
X180244981Y-56554981D03*
X180244981Y-55605019D03*
%TD*%
D36*
%TO.C,D14*%
X61878638Y-143600000D03*
X66600000Y-143600000D03*
%TD*%
D40*
%TO.C,U25*%
X92049835Y-127100000D03*
X91100127Y-127100000D03*
X90150165Y-127100000D03*
X90149911Y-129300152D03*
X92050089Y-129300152D03*
%TD*%
D69*
%TO.C,U12*%
X183545568Y-120549987D03*
X183545568Y-119900000D03*
X183545568Y-119250013D03*
X181654432Y-119250013D03*
X181654432Y-119900000D03*
X181654432Y-120549987D03*
%TD*%
D37*
%TO.C,R29*%
X110550000Y-114000000D03*
X112200000Y-114000000D03*
%TD*%
D42*
%TO.C,U8*%
X165400051Y-108294996D03*
X165400051Y-109564999D03*
X165400051Y-110835001D03*
X165400051Y-112105004D03*
X170599949Y-112105004D03*
X170599949Y-110835001D03*
X170599949Y-109564999D03*
X170599949Y-108294996D03*
%TD*%
D26*
%TO.C,C82*%
X89800000Y-125100000D03*
X87900000Y-125100000D03*
%TD*%
D29*
%TO.C,R43*%
X92550013Y-137497892D03*
X92550013Y-136477892D03*
%TD*%
D42*
%TO.C,U28*%
X84799949Y-136905004D03*
X84799949Y-135635001D03*
X84799949Y-134364999D03*
X84799949Y-133094996D03*
X79600051Y-133094996D03*
X79600051Y-134364999D03*
X79600051Y-135635001D03*
X79600051Y-136905004D03*
%TD*%
D21*
%TO.C,R36*%
X80000000Y-101500000D03*
X78980000Y-101500000D03*
%TD*%
D65*
%TO.C,R27*%
X107725000Y-114000000D03*
X106075000Y-114000000D03*
%TD*%
D12*
%TO.C,R11*%
X180780000Y-52800000D03*
X181800000Y-52800000D03*
%TD*%
D70*
%TO.C,U2*%
X59944976Y-61604981D03*
X59944976Y-60954994D03*
X59944976Y-60305006D03*
X59944976Y-59655019D03*
X57075024Y-59655019D03*
X57075024Y-60305006D03*
X57075024Y-60954994D03*
X57075024Y-61604981D03*
D71*
X57952596Y-60629873D03*
%TD*%
D18*
%TO.C,C69*%
X89250000Y-100800000D03*
X88290000Y-100800000D03*
%TD*%
%TO.C,C61*%
X196300000Y-101700000D03*
X195340000Y-101700000D03*
%TD*%
D36*
%TO.C,D13*%
X76300000Y-143600000D03*
X71578638Y-143600000D03*
%TD*%
D16*
%TO.C,U11*%
X178960013Y-70769962D03*
X178960013Y-69820000D03*
X178960013Y-68870038D03*
X176259987Y-68870038D03*
X176259987Y-69820000D03*
X176259987Y-70769962D03*
%TD*%
D72*
%TO.C,U7*%
X165953010Y-90711963D03*
D73*
X173447041Y-92997968D03*
D72*
X165955042Y-95288037D03*
%TD*%
D21*
%TO.C,R47*%
X79992553Y-140500000D03*
X78972553Y-140500000D03*
%TD*%
%TO.C,R33*%
X80000000Y-102800000D03*
X78980000Y-102800000D03*
%TD*%
%TO.C,R20*%
X80000000Y-90700000D03*
X78980000Y-90700000D03*
%TD*%
D34*
%TO.C,T5*%
X71000000Y-104636232D03*
D24*
X71000000Y-107182080D03*
D35*
X74974600Y-105277076D03*
%TD*%
D21*
%TO.C,R34*%
X79992553Y-114297621D03*
X78972553Y-114297621D03*
%TD*%
D43*
%TO.C,R38*%
X115548561Y-137514686D03*
X115548561Y-138534686D03*
%TD*%
D46*
%TO.C,L4*%
X155000102Y-102800000D03*
X156399898Y-102800000D03*
%TD*%
D12*
%TO.C,R4*%
X111965000Y-87500000D03*
X112985000Y-87500000D03*
%TD*%
D51*
%TO.C,U22*%
X112848689Y-111210008D03*
X112848689Y-109940005D03*
X112848689Y-108670003D03*
X112848689Y-107400000D03*
X112848689Y-106129997D03*
X112848689Y-104859995D03*
X112848689Y-103589992D03*
D52*
X102348561Y-107400000D03*
%TD*%
D66*
%TO.C,U5*%
X57600000Y-65200000D03*
X60009956Y-65200000D03*
%TD*%
D62*
%TO.C,L9*%
X175380000Y-82990000D03*
X169380000Y-82990000D03*
%TD*%
D74*
%TO.C,U15*%
X189080036Y-146075083D03*
X189080036Y-145425095D03*
X189080036Y-144775108D03*
X189080036Y-144125121D03*
X189080036Y-143474879D03*
X189080036Y-142824892D03*
X189080036Y-142174905D03*
X189080036Y-141524917D03*
X183519964Y-141524917D03*
X183519964Y-142174905D03*
X183519964Y-142824892D03*
X183519964Y-143474879D03*
X183519964Y-144125121D03*
X183519964Y-144775108D03*
X183519964Y-145425095D03*
X183519964Y-146075083D03*
%TD*%
D28*
%TO.C,C79*%
X119748561Y-136074686D03*
X119748561Y-134174686D03*
%TD*%
D18*
%TO.C,C78*%
X88500000Y-128100000D03*
X87540000Y-128100000D03*
%TD*%
M02*
