%TF.GenerationSoftware,KiCad,Pcbnew,10.0.3*%
%TF.CreationDate,2026-08-17T12:35:25+08:00*%
%TF.ProjectId,CoilDriver_v0.1,436f696c-4472-4697-9665-725f76302e31,rev?*%
%TF.SameCoordinates,Original*%
%TF.FileFunction,Soldermask,Bot*%
%TF.FilePolarity,Negative*%
%FSLAX46Y46*%
G04 Gerber Fmt 4.6, Leading zero omitted, Abs format (unit mm)*
G04 Created by KiCad (PCBNEW 10.0.3) date 2026-08-17 12:35:25*
%MOMM*%
%LPD*%
G01*
G04 APERTURE LIST*
%ADD10R,3.000000X3.000000*%
%ADD11C,3.000000*%
%ADD12R,1.800000X1.800000*%
%ADD13C,1.800000*%
%ADD14R,2.000000X2.000000*%
%ADD15C,2.000000*%
%ADD16C,1.600000*%
%ADD17R,1.574803X1.574803*%
%ADD18C,1.574803*%
%ADD19C,4.000000*%
G04 APERTURE END LIST*
D10*
%TO.C,CN1*%
X53500000Y-57459995D03*
D11*
X53500000Y-62540005D03*
%TD*%
D10*
%TO.C,CN7*%
X53500000Y-137459995D03*
D11*
X53500000Y-142540005D03*
%TD*%
D12*
%TO.C,J3*%
X91179984Y-58740006D03*
D13*
X93719989Y-58740006D03*
X96259994Y-58740006D03*
X98800000Y-58740006D03*
X101340005Y-58740006D03*
X103880010Y-58740006D03*
X103880010Y-56200000D03*
X101340005Y-56200000D03*
X98800000Y-56200000D03*
X96259994Y-56200000D03*
X93719989Y-56200000D03*
X91179984Y-56200000D03*
%TD*%
D14*
%TO.C,J2*%
X191570003Y-139100000D03*
D15*
X189029997Y-139100000D03*
%TD*%
D16*
%TO.C,SW1*%
X179400000Y-138779984D03*
X176859995Y-138779984D03*
X174319990Y-138779984D03*
X171779985Y-138779984D03*
X169239979Y-138779984D03*
X166699974Y-138779984D03*
X164159969Y-138779984D03*
X161619964Y-138779984D03*
X161619964Y-146400000D03*
X164159969Y-146400000D03*
X166699974Y-146400000D03*
X169239979Y-146400000D03*
X171779985Y-146400000D03*
X174319990Y-146400000D03*
X176859995Y-146400000D03*
X179400000Y-146400000D03*
%TD*%
D17*
%TO.C,J1*%
X207870003Y-60629921D03*
D18*
X207870003Y-63169926D03*
X207870003Y-65709931D03*
X207870003Y-68249936D03*
X207870003Y-70789942D03*
X207870003Y-73329947D03*
X207870003Y-75869952D03*
X207870003Y-78409957D03*
X207870003Y-80949962D03*
X207870003Y-83489967D03*
X207870003Y-86029972D03*
X207870003Y-88569977D03*
X207870003Y-91109982D03*
X207870003Y-93649987D03*
X207870003Y-96189992D03*
X207870003Y-98729997D03*
X207870003Y-101270003D03*
X207870003Y-103810008D03*
X207870003Y-106350013D03*
X207870003Y-108890018D03*
X207870003Y-111430023D03*
X207870003Y-113970028D03*
X207870003Y-116510033D03*
X207870003Y-119050038D03*
X207870003Y-121590043D03*
X207870003Y-124130048D03*
X207870003Y-126670053D03*
X207870003Y-129210058D03*
X207870003Y-131750064D03*
X207870003Y-134290069D03*
X207870003Y-136830074D03*
X207870003Y-139370079D03*
X205329997Y-60629921D03*
X205329997Y-63169926D03*
X205329997Y-65709931D03*
X205329997Y-68249936D03*
X205329997Y-70789942D03*
X205329997Y-73329947D03*
X205329997Y-75869952D03*
X205329997Y-78409957D03*
X205329997Y-80949962D03*
X205329997Y-83489967D03*
X205329997Y-86029972D03*
X205329997Y-88569977D03*
X205329997Y-91109982D03*
X205329997Y-93649987D03*
X205329997Y-96189992D03*
X205329997Y-98729997D03*
X205329997Y-101270003D03*
X205329997Y-103810008D03*
X205329997Y-106350013D03*
X205329997Y-108890018D03*
X205329997Y-111430023D03*
X205329997Y-113970028D03*
X205329997Y-116510033D03*
X205329997Y-119050038D03*
X205329997Y-121590043D03*
X205329997Y-124130048D03*
X205329997Y-126670053D03*
X205329997Y-129210058D03*
X205329997Y-131750064D03*
X205329997Y-134290069D03*
X205329997Y-136830074D03*
X205329997Y-139370079D03*
X202789992Y-60629921D03*
X202789992Y-63169926D03*
X202789992Y-65709931D03*
X202789992Y-68249936D03*
X202789992Y-70789942D03*
X202789992Y-73329947D03*
X202789992Y-75869952D03*
X202789992Y-78409957D03*
X202789992Y-80949962D03*
X202789992Y-83489967D03*
X202789992Y-86029972D03*
X202789992Y-88569977D03*
X202789992Y-91109982D03*
X202789992Y-93649987D03*
X202789992Y-96189992D03*
X202789992Y-98729997D03*
X202789992Y-101270003D03*
X202789992Y-103810008D03*
X202789992Y-106350013D03*
X202789992Y-108890018D03*
X202789992Y-111430023D03*
X202789992Y-113970028D03*
X202789992Y-116510033D03*
X202789992Y-119050038D03*
X202789992Y-121590043D03*
X202789992Y-124130048D03*
X202789992Y-126670053D03*
X202789992Y-129210058D03*
X202789992Y-131750064D03*
X202789992Y-134290069D03*
X202789992Y-136830074D03*
X202789992Y-139370079D03*
D19*
X210410008Y-55549911D03*
X210410008Y-144450089D03*
%TD*%
D10*
%TO.C,CN3*%
X53500000Y-84126662D03*
D11*
X53500000Y-89206672D03*
%TD*%
D10*
%TO.C,CN5*%
X53500000Y-110793328D03*
D11*
X53500000Y-115873338D03*
%TD*%
M02*
