M48
; DRILL file KiCad 10.0.3 date 2026-08-17T12:35:25
; FORMAT={-:-/ absolute / inch / decimal}
; #@! TF.CreationDate,2026-08-17T12:35:25+08:00
; #@! TF.GenerationSoftware,Kicad,Pcbnew,10.0.3
; #@! TF.FileFunction,Plated,1,4,PTH
FMAT,2
INCH
; #@! TA.AperFunction,Plated,PTH,ViaDrill
T1C0.0118
; #@! TA.AperFunction,Plated,PTH,ViaDrill
T2C0.0157
; #@! TA.AperFunction,Plated,PTH,ViaDrill
T3C0.0315
; #@! TA.AperFunction,Plated,PTH,ComponentDrill
T4C0.0320
; #@! TA.AperFunction,Plated,PTH,ComponentDrill
T5C0.0372
; #@! TA.AperFunction,Plated,PTH,ComponentDrill
T6C0.0394
; #@! TA.AperFunction,Plated,PTH,ComponentDrill
T7C0.0433
; #@! TA.AperFunction,Plated,PTH,ComponentDrill
T8C0.0472
; #@! TA.AperFunction,Plated,PTH,ComponentDrill
T9C0.0669
; #@! TA.AperFunction,Plated,PTH,ComponentDrill
T10C0.1102
%
G90
G05
T1
X2.3701Y-2.2061
X2.4096Y-2.5669
X2.4236Y-2.5071
X2.4626Y-2.2362
X2.4827Y-2.5071
X2.5291Y-4.9724
X2.5291Y-5.6535
X2.5305Y-3.9291
X2.5325Y-2.9472
X2.5325Y-3.6401
X2.5384Y-4.6195
X2.6858Y-5.2126
X2.689Y-3.189
X2.689Y-3.4016
X2.6937Y-5.4134
X2.6966Y-5.1113
X2.6966Y-5.3633
X2.6969Y-4.378
X2.6993Y-4.0694
X2.7002Y-3.3459
X2.7008Y-3.0906
X2.7008Y-4.1693
X2.7037Y-4.3278
X2.7352Y-5.2616
X2.7369Y-4.2198
X2.7375Y-3.2414
X2.7443Y-3.4963
X2.747Y-5.5136
X2.7502Y-4.4782
X3.0748Y-3.2953
X3.0748Y-4.5
X3.0748Y-4.5512
X3.0748Y-5.0827
X3.0748Y-5.1339
X3.0748Y-5.5315
X3.0748Y-5.5827
X3.0787Y-3.0157
X3.0787Y-3.0709
X3.0787Y-3.5118
X3.0787Y-3.5709
X3.0787Y-3.9961
X3.0787Y-4.0472
X3.0827Y-4.2756
X3.0827Y-5.3386
X3.1339Y-3.189
X3.1496Y-3.1024
X3.1496Y-4.0787
X3.1496Y-5.1614
X3.187Y-5.5315
X3.1876Y-4.277
X3.189Y-4.5
X3.189Y-4.5512
X3.189Y-5.5827
X3.1915Y-5.34
X3.1929Y-3.9961
X3.1929Y-4.1772
X3.1929Y-5.0827
X3.1929Y-5.2402
X3.1969Y-3.0157
X3.1969Y-3.5709
X3.2635Y-2.2837
X3.2835Y-3.2663
X3.2888Y-4.227
X3.2888Y-5.29
X3.4606Y-4.8661
X3.4882Y-3.7835
X3.5133Y-2.5276
X3.5157Y-5.1181
X3.5315Y-5.2283
X3.5354Y-4.0394
X3.5512Y-4.1457
X3.563Y-2.7953
X3.5787Y-2.8898
X3.5866Y-4.937
X3.6378Y-3.8346
X3.6535Y-5.2283
X3.6654Y-2.5787
X3.6654Y-5.126
X3.6693Y-4.1457
X3.6811Y-4.0394
X3.7047Y-2.8898
X3.7205Y-2.7992
X3.7244Y-5.1496
X3.7362Y-4.0394
X3.7795Y-2.7992
X3.8386Y-4.4882
X3.8583Y-2.9252
X3.8583Y-2.9646
X3.8583Y-3.0039
X3.8583Y-3.0433
X3.8583Y-3.0827
X3.8583Y-3.122
X3.8583Y-3.1614
X3.8583Y-3.2008
X3.8583Y-3.2402
X3.8583Y-3.2795
X3.8583Y-3.3268
X3.8583Y-4.0551
X3.8583Y-4.0945
X3.8583Y-4.1339
X3.8583Y-4.1732
X3.8583Y-4.2126
X3.8583Y-4.252
X3.8583Y-4.2913
X3.8583Y-4.3307
X3.8583Y-4.3701
X3.8583Y-4.4094
X3.8585Y-5.2323
X3.8585Y-5.2717
X3.8585Y-5.311
X3.8585Y-5.3504
X3.8585Y-5.3898
X3.8585Y-5.4291
X3.8585Y-5.4685
X3.8585Y-5.5079
X3.8585Y-5.5472
X3.8585Y-5.5866
X3.8701Y-3.3819
X3.8898Y-5.6693
X3.8976Y-2.9252
X3.8976Y-2.9646
X3.8976Y-3.0039
X3.8976Y-3.0433
X3.8976Y-3.0827
X3.8976Y-3.122
X3.8976Y-3.1614
X3.8976Y-3.2008
X3.8976Y-3.2402
X3.8976Y-3.2795
X3.8976Y-3.3268
X3.8976Y-4.0551
X3.8976Y-4.0945
X3.8976Y-4.1339
X3.8976Y-4.1732
X3.8976Y-4.2126
X3.8976Y-4.252
X3.8976Y-4.2913
X3.8976Y-4.3307
X3.8976Y-4.3701
X3.8976Y-4.4094
X3.8979Y-5.2323
X3.8979Y-5.2717
X3.8979Y-5.311
X3.8979Y-5.3504
X3.8979Y-5.3898
X3.8979Y-5.4291
X3.8979Y-5.4685
X3.8979Y-5.5079
X3.8979Y-5.5472
X3.8979Y-5.5866
X3.937Y-2.9252
X3.937Y-2.9646
X3.937Y-3.0039
X3.937Y-3.0433
X3.937Y-3.0827
X3.937Y-3.122
X3.937Y-3.1614
X3.937Y-3.2008
X3.937Y-3.2402
X3.937Y-3.2795
X3.937Y-3.3268
X3.937Y-4.0551
X3.937Y-4.0945
X3.937Y-4.1339
X3.937Y-4.1732
X3.937Y-4.2126
X3.937Y-4.252
X3.937Y-4.2913
X3.937Y-4.3307
X3.937Y-4.3701
X3.937Y-4.4094
X3.9373Y-5.2323
X3.9373Y-5.2717
X3.9373Y-5.311
X3.9373Y-5.3504
X3.9373Y-5.3898
X3.9373Y-5.4291
X3.9373Y-5.4685
X3.9373Y-5.5079
X3.9373Y-5.5472
X3.9373Y-5.5866
X3.9764Y-2.9252
X3.9764Y-2.9646
X3.9764Y-3.0039
X3.9764Y-3.0433
X3.9764Y-3.0827
X3.9764Y-3.122
X3.9764Y-3.1614
X3.9764Y-3.2008
X3.9764Y-3.2402
X3.9764Y-3.2795
X3.9764Y-3.3268
X3.9764Y-4.0551
X3.9764Y-4.0945
X3.9764Y-4.1339
X3.9764Y-4.1732
X3.9764Y-4.2126
X3.9764Y-4.252
X3.9764Y-4.2913
X3.9764Y-4.3307
X3.9764Y-4.3701
X3.9764Y-4.4094
X3.9766Y-5.2323
X3.9766Y-5.2717
X3.9766Y-5.311
X3.9766Y-5.3504
X3.9766Y-5.3898
X3.9766Y-5.4291
X3.9766Y-5.4685
X3.9766Y-5.5079
X3.9766Y-5.5472
X3.9766Y-5.5866
X4.0157Y-2.9252
X4.0157Y-2.9646
X4.0157Y-3.0039
X4.0157Y-3.0433
X4.0157Y-3.0827
X4.0157Y-3.122
X4.0157Y-3.1614
X4.0157Y-3.2008
X4.0157Y-3.2402
X4.0157Y-3.2795
X4.0157Y-3.3268
X4.0157Y-4.0551
X4.0157Y-4.0945
X4.0157Y-4.1339
X4.0157Y-4.1732
X4.0157Y-4.2126
X4.0157Y-4.252
X4.0157Y-4.2913
X4.0157Y-4.3307
X4.0157Y-4.3701
X4.0157Y-4.4094
X4.016Y-5.2323
X4.016Y-5.2717
X4.016Y-5.311
X4.016Y-5.3504
X4.016Y-5.3898
X4.016Y-5.4291
X4.016Y-5.4685
X4.016Y-5.5079
X4.016Y-5.5472
X4.016Y-5.5866
X4.0551Y-2.9252
X4.0551Y-2.9646
X4.0551Y-3.0039
X4.0551Y-3.0433
X4.0551Y-3.0827
X4.0551Y-3.122
X4.0551Y-3.1614
X4.0551Y-3.2008
X4.0551Y-3.2402
X4.0551Y-3.2795
X4.0551Y-3.3268
X4.0551Y-4.0551
X4.0551Y-4.0945
X4.0551Y-4.1339
X4.0551Y-4.1732
X4.0551Y-4.2126
X4.0551Y-4.252
X4.0551Y-4.2913
X4.0551Y-4.3307
X4.0551Y-4.3701
X4.0551Y-4.4094
X4.0554Y-5.2323
X4.0554Y-5.2717
X4.0554Y-5.311
X4.0554Y-5.3504
X4.0554Y-5.3898
X4.0554Y-5.4291
X4.0554Y-5.4685
X4.0554Y-5.5079
X4.0554Y-5.5472
X4.0554Y-5.5866
X4.0945Y-2.9252
X4.0945Y-2.9646
X4.0945Y-3.0039
X4.0945Y-3.0433
X4.0945Y-3.0827
X4.0945Y-3.122
X4.0945Y-3.1614
X4.0945Y-3.2008
X4.0945Y-3.2402
X4.0945Y-3.2795
X4.0945Y-3.3268
X4.0945Y-4.0551
X4.0945Y-4.0945
X4.0945Y-4.1339
X4.0945Y-4.1732
X4.0945Y-4.2126
X4.0945Y-4.252
X4.0945Y-4.2913
X4.0945Y-4.3307
X4.0945Y-4.3701
X4.0945Y-4.4094
X4.0948Y-5.2323
X4.0948Y-5.2717
X4.0948Y-5.311
X4.0948Y-5.3504
X4.0948Y-5.3898
X4.0948Y-5.4291
X4.0948Y-5.4685
X4.0948Y-5.5079
X4.0948Y-5.5472
X4.0948Y-5.5866
X4.1339Y-2.9252
X4.1339Y-2.9646
X4.1339Y-3.0039
X4.1339Y-3.0433
X4.1339Y-3.0827
X4.1339Y-3.122
X4.1339Y-3.1614
X4.1339Y-3.2008
X4.1339Y-3.2402
X4.1339Y-3.2795
X4.1339Y-3.3268
X4.1339Y-4.0551
X4.1339Y-4.0945
X4.1339Y-4.1339
X4.1339Y-4.1732
X4.1339Y-4.2126
X4.1339Y-4.252
X4.1339Y-4.2913
X4.1339Y-4.3307
X4.1339Y-4.3701
X4.1339Y-4.4094
X4.1341Y-5.2323
X4.1341Y-5.2717
X4.1341Y-5.311
X4.1341Y-5.3504
X4.1341Y-5.3898
X4.1341Y-5.4291
X4.1341Y-5.4685
X4.1341Y-5.5079
X4.1341Y-5.5472
X4.1341Y-5.5866
X4.1732Y-2.9252
X4.1732Y-2.9646
X4.1732Y-3.0039
X4.1732Y-3.0433
X4.1732Y-3.0827
X4.1732Y-3.122
X4.1732Y-3.1614
X4.1732Y-3.2008
X4.1732Y-3.2402
X4.1732Y-3.2795
X4.1732Y-3.3268
X4.1732Y-4.0551
X4.1732Y-4.0945
X4.1732Y-4.1339
X4.1732Y-4.1732
X4.1732Y-4.2126
X4.1732Y-4.252
X4.1732Y-4.2913
X4.1732Y-4.3307
X4.1732Y-4.3701
X4.1732Y-4.4094
X4.1735Y-5.2323
X4.1735Y-5.2717
X4.1735Y-5.311
X4.1735Y-5.3504
X4.1735Y-5.3898
X4.1735Y-5.4291
X4.1735Y-5.4685
X4.1735Y-5.5079
X4.1735Y-5.5472
X4.1735Y-5.5866
X4.3535Y-2.8701
X4.3898Y-3.9843
X4.4271Y-5.1624
X4.62Y-5.2339
X4.6299Y-2.9409
X4.6299Y-4.0551
X4.6402Y-4.274
X4.6411Y-5.4522
X4.6433Y-3.1598
X4.7145Y-5.2339
X4.7205Y-2.9409
X4.7244Y-4.0551
X5.189Y-3.1732
X5.189Y-4.2913
X5.189Y-5.4724
X6.0197Y-4.0472
X6.126Y-5.3031
X6.2165Y-4.378
X6.2244Y-4.5866
X6.2323Y-4.0472
X6.2579Y-3.8327
X6.2579Y-4.561
X6.2756Y-3.752
X6.2909Y-4.3293
X6.2992Y-5.3031
X6.3012Y-3.5591
X6.3327Y-4.0459
X6.3327Y-4.1207
X6.3484Y-4.4041
X6.361Y-3.626
X6.3661Y-3.6772
X6.4526Y-4.6122
X6.4882Y-3.9823
X6.5118Y-4.4474
X6.5583Y-3.1413
X6.6496Y-4.5472
X6.6575Y-3.5787
X6.6575Y-3.6378
X6.6575Y-3.6969
X6.6575Y-3.7559
X6.7165Y-3.5787
X6.7165Y-3.6378
X6.7165Y-3.6969
X6.7165Y-3.7559
X6.7205Y-5.374
X6.7283Y-4.0551
X6.7677Y-4.3622
X6.7744Y-3.0748
X6.7756Y-3.5787
X6.7756Y-3.6378
X6.7756Y-3.6969
X6.7756Y-3.7559
X6.815Y-5.3189
X6.815Y-5.374
X6.8346Y-3.5787
X6.8346Y-3.6378
X6.8346Y-3.6969
X6.8346Y-3.7559
X6.8398Y-4.8701
X6.8642Y-2.1398
X6.8709Y-4.4173
X6.8803Y-4.3638
X6.8819Y-4.252
X6.8819Y-4.3071
X6.8862Y-2.5925
X6.8862Y-2.6307
X6.8862Y-2.6701
X6.8862Y-2.7055
X6.8909Y-4.8701
X6.8937Y-3.5787
X6.8937Y-3.6378
X6.8937Y-3.6969
X6.8937Y-3.7559
X6.9016Y-4.6457
X6.9053Y-2.1242
X6.9295Y-2.5925
X6.9295Y-2.6307
X6.9295Y-2.6701
X6.9311Y-2.187
X6.9321Y-4.5896
X6.9768Y-2.5925
X6.9768Y-2.6307
X6.9768Y-2.6701
X6.9768Y-2.7094
X6.9803Y-5.1772
X6.9803Y-5.2795
X7.0268Y-3.165
X7.0589Y-2.2659
X7.0589Y-2.3053
X7.0589Y-2.3447
X7.0589Y-2.388
X7.0817Y-4.4951
X7.1061Y-2.3053
X7.1061Y-2.3447
X7.1061Y-2.388
X7.126Y-3.5433
X7.126Y-3.622
X7.126Y-3.7008
X7.126Y-3.7795
X7.126Y-3.8583
X7.126Y-3.937
X7.1303Y-2.8354
X7.1437Y-4.0177
X7.1492Y-3.2138
X7.1494Y-2.2699
X7.1494Y-2.3053
X7.1494Y-2.3447
X7.1494Y-2.388
X7.1517Y-4.6399
X7.1929Y-4.9213
X7.2012Y-2.7685
X7.2047Y-3.5433
X7.2047Y-3.622
X7.2047Y-3.7008
X7.2047Y-3.7795
X7.2047Y-3.8583
X7.2047Y-3.937
X7.2047Y-4.8425
X7.2063Y-4.3323
X7.2441Y-4.2717
X7.2717Y-4.5551
X7.2717Y-4.7205
X7.2835Y-3.5433
X7.2835Y-3.622
X7.2835Y-3.7008
X7.2835Y-3.7795
X7.2835Y-3.8583
X7.2835Y-3.937
X7.2874Y-5.6969
X7.2874Y-5.7362
X7.3071Y-4.2559
X7.3197Y-4.5677
X7.3583Y-4.1929
X7.3583Y-4.2244
X7.3622Y-3.5433
X7.3622Y-3.622
X7.3622Y-3.7008
X7.3622Y-3.7795
X7.3622Y-3.8583
X7.3622Y-3.937
X7.3917Y-3.9961
X7.4409Y-3.5433
X7.4409Y-3.622
X7.4409Y-3.7008
X7.4409Y-3.7795
X7.4409Y-3.8583
X7.4409Y-3.937
X7.4449Y-5.248
X7.4449Y-5.7913
X7.4459Y-4.7431
X7.4459Y-5.0069
X7.4488Y-5.3819
X7.5079Y-5.5709
X7.5197Y-3.5433
X7.5197Y-3.622
X7.5197Y-3.7008
X7.5197Y-3.7795
X7.5197Y-3.8583
X7.5197Y-3.937
X7.5459Y-4.7415
X7.5591Y-4.0787
X7.563Y-2.5531
X7.5866Y-3.4134
X7.6236Y-3.2472
X7.626Y-4.0039
X7.6311Y-2.8661
X7.6457Y-3.4921
X7.6459Y-4.7439
X7.6476Y-4.1841
X7.6583Y-4.4724
X7.6811Y-2.5531
X7.685Y-2.2106
X7.7087Y-5.4882
X7.7205Y-5.7717
X7.7283Y-3.9134
X7.7441Y-2.4843
X7.7459Y-4.7419
X7.7459Y-5.0022
X7.7531Y-2.8661
X7.7555Y-3.2531
X7.7959Y-5.1293
X7.8059Y-4.4595
X7.8465Y-4.1417
X7.9409Y-5.7205
X7.9409Y-5.7717
T2
X7.1247Y-2.1242
X7.2804Y-4.7646
X7.5492Y-4.0157
T3
X2.2953Y-2.4843
X3.2283Y-3.2663
X3.2362Y-4.2283
X3.2362Y-5.2913
X3.3898Y-2.7835
X3.5354Y-4.8583
X3.563Y-3.7717
X3.6457Y-5.563
X3.6693Y-4.4843
X3.6969Y-3.2402
X3.7165Y-2.4985
X4.5436Y-5.6142
X4.5476Y-5.3104
X4.5539Y-3.0169
X4.5551Y-4.126
X4.5571Y-4.4311
X4.5591Y-3.3071
X4.8327Y-4.1791
X4.8465Y-3.0669
X4.8465Y-5.3543
X6.2795Y-4.6575
X6.4252Y-3.8228
X6.4764Y-4.1772
X6.5583Y-3.35
X6.7166Y-4.5305
X7.0118Y-4.7835
X7.5748Y-5.6654
X7.622Y-3.0
X7.8543Y-5.5354
X7.8701Y-3.8622
T4
X6.363Y-5.7638
X6.463Y-5.7638
X6.563Y-5.7638
X6.663Y-5.7638
X6.763Y-5.7638
X6.863Y-5.7638
X6.963Y-5.7638
X7.063Y-5.7638
T5
X7.9839Y-2.587
X7.9839Y-2.687
X7.9839Y-2.787
X7.9839Y-2.887
X7.9839Y-2.987
X7.9839Y-3.087
X7.9839Y-3.187
X7.9839Y-3.287
X7.9839Y-3.387
X7.9839Y-3.487
X7.9839Y-3.587
X7.9839Y-3.687
X7.9839Y-3.787
X7.9839Y-3.887
X7.9839Y-3.987
X7.9839Y-4.087
X7.9839Y-4.187
X7.9839Y-4.287
X7.9839Y-4.387
X7.9839Y-4.487
X7.9839Y-4.587
X7.9839Y-4.687
X7.9839Y-4.787
X7.9839Y-4.887
X7.9839Y-4.987
X7.9839Y-5.087
X7.9839Y-5.187
X7.9839Y-5.287
X7.9839Y-5.387
X7.9839Y-5.487
X8.0839Y-2.587
X8.0839Y-2.687
X8.0839Y-2.787
X8.0839Y-2.887
X8.0839Y-2.987
X8.0839Y-3.087
X8.0839Y-3.187
X8.0839Y-3.287
X8.0839Y-3.387
X8.0839Y-3.487
X8.0839Y-3.587
X8.0839Y-3.687
X8.0839Y-3.787
X8.0839Y-3.887
X8.0839Y-3.987
X8.0839Y-4.087
X8.0839Y-4.187
X8.0839Y-4.287
X8.0839Y-4.387
X8.0839Y-4.487
X8.0839Y-4.587
X8.0839Y-4.687
X8.0839Y-4.787
X8.0839Y-4.887
X8.0839Y-4.987
X8.0839Y-5.087
X8.0839Y-5.187
X8.0839Y-5.287
X8.0839Y-5.387
X8.0839Y-5.487
X8.1839Y-2.587
X8.1839Y-2.687
X8.1839Y-2.787
X8.1839Y-2.887
X8.1839Y-2.987
X8.1839Y-3.087
X8.1839Y-3.187
X8.1839Y-3.287
X8.1839Y-3.387
X8.1839Y-3.487
X8.1839Y-3.587
X8.1839Y-3.687
X8.1839Y-3.787
X8.1839Y-3.887
X8.1839Y-3.987
X8.1839Y-4.087
X8.1839Y-4.187
X8.1839Y-4.287
X8.1839Y-4.387
X8.1839Y-4.487
X8.1839Y-4.587
X8.1839Y-4.687
X8.1839Y-4.787
X8.1839Y-4.887
X8.1839Y-4.987
X8.1839Y-5.087
X8.1839Y-5.187
X8.1839Y-5.287
X8.1839Y-5.387
X8.1839Y-5.487
T6
X6.363Y-5.4638
X6.463Y-5.4638
X6.563Y-5.4638
X6.663Y-5.4638
X6.763Y-5.4638
X6.863Y-5.4638
X6.963Y-5.4638
X7.063Y-5.4638
X7.9839Y-2.387
X7.9839Y-2.487
X8.0839Y-2.387
X8.0839Y-2.487
X8.1839Y-2.487
T7
X3.5898Y-2.2126
X3.5898Y-2.3126
X3.6898Y-2.2126
X3.6898Y-2.3126
X3.7898Y-2.2126
X3.7898Y-2.3126
X3.8898Y-2.2126
X3.8898Y-2.3126
X3.9898Y-2.2126
X3.9898Y-2.3126
X4.0898Y-2.2126
X4.0898Y-2.3126
T8
X7.4421Y-5.4764
X7.5421Y-5.4764
T9
X2.1063Y-2.2622
X2.1063Y-2.4622
X2.1063Y-3.3121
X2.1063Y-3.5121
X2.1063Y-4.3619
X2.1063Y-4.5619
X2.1063Y-5.4118
X2.1063Y-5.6118
T10
X8.2839Y-2.187
X8.2839Y-5.687
T6
G00X8.1839Y-2.386
M15
G01X8.1839Y-2.388
M16
G05
M30
